<?xml version="1.0" standalone="no"?>
<!DOCTYPE svg PUBLIC "-//W3C//DTD SVG 20010904//EN"
 "http://www.w3.org/TR/2001/REC-SVG-20010904/DTD/svg10.dtd">
<svg version="1.0" xmlns="http://www.w3.org/2000/svg"
 width="598.000000pt" height="598.000000pt" viewBox="0 0 598.000000 598.000000"
 preserveAspectRatio="xMidYMid meet">
<metadata>
Created by potrace 1.11, written by Peter Selinger 2001-2013
</metadata>
<g transform="translate(0.000000,598.000000) scale(0.100000,-0.100000)"
fill="#000000" stroke="none">
<path d="M4445 5945 c-75 -45 -111 -79 -190 -180 -91 -116 -162 -229 -269
-427 -11 -21 -33 -54 -50 -74 -28 -35 -31 -36 -80 -30 -28 3 -96 17 -150 31
-105 27 -130 32 -186 41 -19 2 -57 9 -85 14 -27 6 -72 12 -100 15 -27 3 -79 8
-115 11 -75 7 -416 7 -475 0 -22 -3 -73 -8 -114 -11 -41 -4 -84 -9 -95 -11
-24 -5 -67 -12 -111 -19 -65 -10 -102 -17 -140 -27 -22 -5 -51 -12 -65 -14
-14 -3 -86 -21 -160 -41 -196 -52 -287 -67 -330 -54 -19 6 -57 29 -85 52 -211
177 -451 305 -520 279 -24 -9 -25 -11 -11 -37 8 -16 40 -62 73 -104 32 -42 67
-88 78 -103 11 -16 26 -34 32 -41 7 -7 38 -60 68 -117 31 -56 65 -115 76 -129
l21 -26 -20 -39 c-11 -21 -51 -77 -89 -124 -38 -47 -111 -137 -162 -200 -51
-63 -98 -122 -105 -131 -175 -217 -343 -547 -410 -807 -46 -177 -66 -444 -46
-622 46 -424 170 -726 454 -1105 168 -223 265 -404 308 -574 2 -8 17 13 34 45
38 77 63 82 143 27 131 -89 400 -337 493 -453 20 -25 40 -58 44 -74 7 -29 7
-29 23 -9 9 11 29 28 44 37 26 18 28 18 71 -8 48 -28 138 -90 264 -181 l82
-60 -6 -140 c-4 -77 -7 -208 -7 -291 -1 -127 2 -156 16 -178 25 -37 55 -34 72
8 9 20 33 47 57 63 39 26 46 38 79 128 59 165 129 286 220 376 57 56 96 79
150 85 21 3 78 20 126 38 49 19 105 37 126 40 20 3 54 8 75 11 20 3 43 8 49
10 7 2 15 -6 17 -18 2 -12 10 -53 18 -92 9 -49 18 -71 29 -73 10 -2 18 6 22
20 20 87 41 146 60 167 12 13 69 46 127 73 58 27 114 53 125 58 51 24 158 60
178 60 36 0 62 -32 81 -99 16 -56 28 -73 39 -53 3 4 8 42 11 84 4 43 13 92 21
110 15 36 118 168 140 181 9 4 30 0 52 -11 27 -14 45 -17 61 -11 25 10 29 16
36 77 3 24 22 73 42 110 34 61 122 200 134 212 3 3 13 16 22 30 9 14 66 97
127 185 161 232 209 314 350 590 44 85 66 140 77 190 1 6 7 28 13 50 35 130
36 582 2 737 -6 24 -12 56 -15 71 -15 86 -106 324 -191 501 -170 353 -349 582
-706 904 -170 153 -207 211 -193 298 6 41 55 185 85 251 10 23 19 46 19 51 0
9 22 63 56 138 54 120 143 334 146 349 5 31 -23 28 -87 -10z m-1235 -863 c36
-6 92 -13 125 -17 126 -13 190 -34 281 -92 122 -77 137 -95 130 -156 -12 -107
-186 -630 -222 -667 -11 -11 -41 -15 -120 -16 -116 -2 -140 2 -142 19 -1 14
-7 51 -21 127 -6 30 -12 66 -15 80 -18 100 -61 290 -75 333 -23 68 -38 73
-227 71 -289 -3 -512 -26 -514 -54 -1 -3 -3 -57 -6 -120 -2 -63 -6 -128 -8
-145 -4 -33 -19 -181 -21 -205 -6 -67 -20 -128 -32 -142 -25 -29 -142 -43
-172 -21 -42 29 -229 565 -233 667 -3 66 46 115 162 160 25 10 52 21 60 26 23
11 141 39 175 41 17 1 46 -1 65 -5 28 -6 46 -1 94 24 69 37 269 85 396 95 47
4 87 9 89 11 7 6 163 -4 231 -14z m893 -423 c45 -24 201 -167 274 -251 30 -35
65 -126 79 -202 8 -49 30 -75 58 -70 38 7 79 -36 132 -139 89 -169 210 -477
228 -577 23 -127 25 -539 4 -649 -44 -227 -94 -346 -256 -606 -121 -194 -290
-395 -332 -395 -10 0 -23 12 -29 28 -12 29 -56 206 -66 262 -21 123 -125 442
-198 605 -122 273 -237 421 -395 505 -92 48 -106 66 -97 113 13 62 206 643
234 702 5 11 32 81 59 155 85 231 147 369 207 465 42 68 56 75 98 54z m-2486
-125 c68 -72 227 -443 372 -867 44 -131 83 -248 86 -260 41 -179 33 -200 -100
-280 -158 -94 -237 -222 -375 -608 -116 -322 -142 -389 -152 -389 -30 0 -181
203 -263 355 -21 39 -41 75 -45 80 -32 44 -152 345 -164 411 -3 16 -11 56 -17
89 -17 93 -14 433 5 545 3 14 7 41 10 61 8 54 28 103 104 254 92 184 160 290
258 404 17 20 56 73 88 118 93 134 132 151 193 87z m1840 -590 c6 -17 -34
-134 -84 -243 -33 -73 -34 -74 -49 -52 -12 16 -17 58 -21 156 l-6 134 29 6
c16 4 34 8 39 9 33 9 87 3 92 -10z m-1149 -78 c19 -42 1 -163 -27 -180 -18
-12 -70 118 -65 164 0 8 2 23 2 32 4 36 72 24 90 -16z m792 -201 c18 -3 37 -8
42 -11 4 -3 8 -38 8 -77 0 -61 -5 -80 -29 -122 -38 -65 -158 -205 -177 -205
-15 0 -21 20 -27 87 -3 24 -10 50 -17 58 -11 14 -14 13 -26 -3 -7 -11 -16 -32
-19 -48 -12 -68 -15 -79 -30 -93 -14 -14 -22 -9 -85 58 -39 40 -70 78 -70 83
0 5 -11 24 -24 41 -43 58 -58 95 -45 114 26 41 163 110 239 120 19 3 36 6 38
8 5 4 186 -4 222 -10z"/>
<path d="M2786 3533 c-52 -37 -58 -60 -20 -69 24 -6 50 2 86 28 14 10 27 9 68
-6 92 -33 113 7 25 48 -81 39 -105 39 -159 -1z"/>
<path d="M1388 1133 c-22 -39 -23 -106 -3 -123 19 -16 27 16 23 95 l-3 60 -17
-32z"/>
<path d="M4501 1120 c-10 -32 -5 -86 10 -96 12 -7 39 39 42 71 1 18 -5 32 -19
42 -20 13 -22 12 -33 -17z"/>
<path d="M2087 698 c-29 -63 -26 -105 9 -114 61 -15 90 29 62 93 -27 61 -49
67 -71 21z"/>
<path d="M3590 211 c-5 -11 -10 -34 -10 -51 0 -23 6 -33 26 -42 22 -10 27 -9
37 7 13 23 10 74 -5 93 -15 18 -36 15 -48 -7z"/>
<path d="M4212 108 c-20 -26 -24 -75 -7 -92 20 -19 26 -20 50 -3 14 11 17 21
11 47 -10 53 -33 73 -54 48z"/>
</g>
</svg>
